<svg width="2158.0" height="454.0" viewBox="243.0 75.5 2158.0 454.0" fill="none" xmlns="http://www.w3.org/2000/svg">
  <path d="M 318.64,506.50 L 306.50,505.86 L 294.37,502.03 L 276.81,488.94 L 266.60,469.79 L 265.96,446.16 L 393.02,156.92 L 403.24,140.96 L 420.80,122.12 L 448.89,104.88 L 470.60,99.14 L 492.31,98.50 L 508.91,101.69 L 529.98,110.63 L 542.75,119.57 L 555.84,132.66 L 568.61,150.54 L 575.63,164.58 L 625.43,276.96 L 627.35,297.39 L 622.88,311.44 L 606.60,327.72 L 582.34,336.02 L 461.02,337.30 L 443.78,340.49 L 430.37,346.24 L 416.65,358.05 L 408.35,370.18 L 357.90,483.19 L 340.98,499.48 L 329.49,504.58 L 318.64,506.50 Z M 319.59,483.83 L 332.68,478.41 L 341.30,468.51 L 390.47,357.41 L 398.13,345.92 L 411.86,332.19 L 432.93,320.70 L 455.27,315.59 L 534.77,315.27 L 482.73,193.00 L 437.72,296.12 L 428.46,304.10 L 415.37,303.14 L 417.28,288.45 L 461.34,185.02 L 465.17,177.99 L 471.88,171.93 L 480.18,169.37 L 487.84,170.01 L 496.14,174.48 L 500.93,180.55 L 559.99,314.31 L 586.17,312.40 L 597.02,307.29 L 603.73,299.95 L 605.64,294.84 L 603.73,280.79 L 550.09,162.67 L 536.04,143.51 L 517.85,129.15 L 502.52,122.76 L 487.84,120.21 L 472.51,120.85 L 457.83,124.68 L 436.76,136.81 L 422.39,151.81 L 410.90,169.69 L 287.67,448.72 L 287.67,464.04 L 292.78,473.62 L 304.59,482.24 L 319.59,483.83 Z M 657.04,505.86 L 644.27,505.86 L 632.14,502.67 L 620.65,496.28 L 610.75,487.03 L 599.89,469.79 L 568.29,397.32 L 445.06,397.32 L 435.48,394.12 L 431.33,389.97 L 430.05,384.87 L 431.97,380.40 L 444.42,374.97 L 580.42,375.61 L 586.49,382.31 L 625.43,470.42 L 633.42,478.41 L 641.72,482.88 L 658.96,482.88 L 672.68,472.98 L 676.51,465.32 L 677.79,455.10 L 673.96,441.05 L 630.54,344.64 L 629.90,338.89 L 632.46,332.51 L 644.91,325.81 L 694.39,433.39 L 699.50,451.91 L 698.22,469.79 L 689.92,487.03 L 676.83,498.84 L 657.04,505.86 Z M 1226.0,500.5 L 1141.0,500.5 L 1109.0,422.5 L 935.0,422.5 L 904.0,500.5 L 819.5,500.0 L 976.0,98.5 L 1070.5,99.0 L 1226.0,500.5 Z  M 1680.0,505.5 L 1655.0,503.5 L 1634.0,497.5 L 1619.0,488.5 L 1602.5,469.0 L 1594.5,448.0 L 1591.5,424.0 L 1591.5,273.0 L 1548.5,272.0 L 1547.5,205.0 L 1591.5,204.0 L 1592.0,123.5 L 1672.0,123.5 L 1672.5,204.0 L 1729.5,205.0 L 1729.5,271.0 L 1672.5,272.0 L 1672.5,415.0 L 1676.5,426.0 L 1689.0,434.5 L 1709.0,434.5 L 1727.5,430.0 L 1736.5,491.0 L 1720.0,499.5 L 1680.0,505.5 Z  M 1081.5,350.0 L 1021.0,187.5 L 961.5,350.0 L 1081.5,350.0 Z  M 1407.0,506.5 L 1373.0,505.5 L 1341.0,499.5 L 1294.0,477.5 L 1267.5,454.0 L 1253.5,435.0 L 1240.5,408.0 L 1233.5,378.0 L 1232.5,334.0 L 1236.5,309.0 L 1244.5,285.0 L 1259.5,258.0 L 1284.0,231.5 L 1301.0,219.5 L 1328.0,206.5 L 1359.0,198.5 L 1418.0,198.5 L 1444.0,205.5 L 1476.0,221.5 L 1499.5,243.0 L 1515.5,267.0 L 1526.5,295.0 L 1532.5,324.0 L 1532.0,379.5 L 1316.5,380.0 L 1321.5,398.0 L 1330.5,412.0 L 1342.0,423.5 L 1362.0,434.5 L 1392.0,440.5 L 1422.0,438.5 L 1444.0,431.5 L 1473.0,415.5 L 1512.5,465.0 L 1492.0,481.5 L 1465.0,494.5 L 1438.0,502.5 L 1407.0,506.5 Z  M 1932.0,505.5 L 1894.0,505.5 L 1870.0,501.5 L 1841.0,491.5 L 1818.0,478.5 L 1787.5,451.0 L 1776.5,436.0 L 1763.5,410.0 L 1755.5,381.0 L 1753.5,339.0 L 1757.5,313.0 L 1766.5,286.0 L 1779.5,263.0 L 1801.0,238.5 L 1825.0,220.5 L 1851.0,207.5 L 1886.0,198.5 L 1915.0,196.5 L 1951.0,200.5 L 1979.0,209.5 L 2009.0,226.5 L 2034.5,249.0 L 2047.5,266.0 L 2063.5,298.0 L 2070.5,328.0 L 2071.5,366.0 L 2065.5,399.0 L 2054.5,426.0 L 2039.5,449.0 L 2017.0,471.5 L 1993.0,487.5 L 1967.0,498.5 L 1932.0,505.5 Z  M 2378.0,500.5 L 2289.0,500.5 L 2224.0,407.5 L 2159.0,500.5 L 2070.0,500.5 L 2174.5,349.0 L 2072.5,204.0 L 2163.0,203.5 L 2224.0,289.5 L 2285.0,203.5 L 2373.0,203.5 L 2272.5,348.0 L 2378.0,500.5 Z  M 1452.5,321.0 L 1447.5,299.0 L 1439.5,285.0 L 1422.0,269.5 L 1398.0,261.5 L 1371.0,262.5 L 1344.0,274.5 L 1325.5,295.0 L 1316.5,319.0 L 1317.0,321.5 L 1452.5,321.0 Z  M 1923.5,434.0 L 1950.0,425.5 L 1972.5,405.0 L 1986.5,374.0 L 1988.5,340.0 L 1976.5,304.0 L 1959.0,283.5 L 1937.0,271.5 L 1902.0,268.5 L 1873.0,278.5 L 1849.5,302.0 L 1838.5,329.0 L 1837.5,368.0 L 1848.5,399.0 L 1864.0,417.5 L 1893.0,432.5 L 1923.5,434.0 Z " fill="#ffffff" fill-rule="evenodd" stroke="#000000" stroke-width="10" stroke-linejoin="round"/>
</svg>
